<svg width="212" height="146" viewBox="0 0 212 146" fill="none" xmlns="http://www.w3.org/2000/svg">
<path fill-rule="evenodd" clip-rule="evenodd" d="M69.8187 45.5627C66.0401 54.3356 64.1507 63.6246 64.1507 73.4297C64.1507 83.4928 66.0401 92.9108 69.8187 101.684C73.5974 110.457 78.8094 118.198 85.4546 124.906C92.2302 131.486 75.6822 146 75.6822 146H137.444C147.477 146 156.924 144.129 165.784 140.388C174.645 136.647 182.462 131.486 189.238 124.906C196.144 118.198 201.486 110.457 205.265 101.684C209.174 92.9108 211.128 83.4928 211.128 73.4297C211.128 63.6246 209.174 54.3356 205.265 45.5627C201.486 36.7897 196.144 29.0489 189.238 22.3402C182.462 15.5024 174.645 10.1483 165.784 6.27791C156.924 2.4075 147.477 0.47229 137.444 0.47229C127.281 0.47229 117.769 2.4075 108.909 6.27791C100.048 10.1483 92.2302 15.5024 85.4546 22.3402C78.8094 29.0489 73.5974 36.7897 69.8187 45.5627ZM99.3315 96.4587C95.4225 89.4919 93.468 81.8156 93.468 73.4297C93.468 64.7857 95.4225 57.0449 99.3315 50.2072C103.241 43.2404 108.518 37.7573 115.163 33.7579C121.808 29.6294 129.3 27.5652 137.64 27.5652C145.979 27.5652 153.471 29.6294 160.116 33.7579C166.761 37.7573 172.039 43.2404 175.948 50.2072C179.857 57.0449 181.811 64.7857 181.811 73.4297C181.811 81.8156 179.922 89.4919 176.143 96.4587C172.364 103.296 167.152 108.779 160.507 112.908C153.992 116.907 146.63 118.907 138.421 118.907C129.952 118.907 122.329 116.907 115.554 112.908C108.778 108.779 103.371 103.296 99.3315 96.4587Z" fill="white"/>
<path d="M3.66467 138.404C1.64072 138.404 0 140.029 0 142.033C0 144.037 1.64072 145.661 3.66467 145.661H57.4131C59.4371 145.661 61.0778 144.037 61.0778 142.033C61.0778 140.029 59.4371 138.404 57.4131 138.404L3.66467 138.404Z" fill="white"/>
<path d="M46.4191 127.519C46.4191 125.515 48.0599 123.89 50.0838 123.89H67.1856C69.2095 123.89 70.8503 125.515 70.8503 127.519C70.8503 129.523 69.2095 131.147 67.1856 131.147H50.0838C48.0599 131.147 46.4191 129.523 46.4191 127.519Z" fill="white"/>
<path d="M30.5389 109.376C28.515 109.376 26.8742 111.001 26.8742 113.005C26.8742 115.009 28.515 116.633 30.5389 116.633H57.4131C59.4371 116.633 61.0778 115.009 61.0778 113.005C61.0778 111.001 59.4371 109.376 57.4131 109.376H30.5389Z" fill="white"/>
<path d="M137.987 103.774C154.606 103.774 168.149 90.2319 168.149 73.6131C168.149 56.9943 154.606 43.4519 137.987 43.4519C121.369 43.4519 107.826 56.9943 107.826 73.6131C107.826 90.2319 121.369 103.774 137.987 103.774ZM123.781 71.4717L138.862 56.3911C140.038 55.2148 141.969 55.2148 143.145 56.3911C144.321 57.5673 144.321 59.4977 143.145 60.6739L133.192 70.597H150.052C151.258 70.597 152.374 71.3208 152.827 72.467C153.309 73.5829 153.038 74.8799 152.193 75.7545L137.113 90.8351C136.509 91.4082 135.755 91.7098 134.971 91.7098C134.187 91.7098 133.433 91.4082 132.83 90.8351C131.654 89.6588 131.654 87.7285 132.83 86.5522L142.783 76.6292H125.923C124.716 76.6292 123.6 75.9053 123.148 74.7592C122.665 73.6433 122.937 72.3463 123.781 71.4717Z" fill="white"/>
</svg>
