<svg width="280" height="193" viewBox="0 0 280 193" fill="none" xmlns="http://www.w3.org/2000/svg">
<path fill-rule="evenodd" clip-rule="evenodd" d="M92.5941 59.7992C87.5828 71.434 85.0771 83.7531 85.0771 96.7567C85.0771 110.102 87.5828 122.593 92.5941 134.227C97.6054 145.862 104.518 156.128 113.331 165.025C122.316 173.751 100.37 193 100.37 193H182.279C195.585 193 208.114 190.519 219.864 185.557C231.615 180.595 241.983 173.751 250.969 165.025C260.128 156.128 267.212 145.862 272.224 134.227C277.408 122.593 280 110.102 280 96.7567C280 83.7531 277.408 71.434 272.224 59.7992C267.212 48.1644 260.128 37.8985 250.969 29.0013C241.983 19.9331 231.615 12.8324 219.864 7.69946C208.114 2.56649 195.585 0 182.279 0C168.801 0 156.186 2.56649 144.435 7.69946C132.685 12.8324 122.316 19.9331 113.331 29.0013C104.518 37.8985 97.6054 48.1644 92.5941 59.7992ZM131.734 127.298C126.55 118.059 123.958 107.878 123.958 96.7567C123.958 85.293 126.55 75.027 131.734 65.9588C136.918 56.7194 143.917 49.4477 152.73 44.1436C161.543 38.6684 171.479 35.9308 182.539 35.9308C193.598 35.9308 203.534 38.6684 212.347 44.1436C221.16 49.4477 228.159 56.7194 233.343 65.9588C238.527 75.027 241.119 85.293 241.119 96.7567C241.119 107.878 238.613 118.059 233.602 127.298C228.591 136.366 221.679 143.638 212.866 149.113C204.225 154.417 194.462 157.069 183.575 157.069C172.343 157.069 162.234 154.417 153.248 149.113C144.263 143.638 137.091 136.366 131.734 127.298Z" fill="black"/>
<path d="M4.86011 182.926C2.17594 182.926 0 185.081 0 187.739C0 190.396 2.17594 192.551 4.86011 192.551L76.1417 192.551C78.8259 192.551 81.0018 190.396 81.0018 187.739C81.0018 185.081 78.8259 182.927 76.1417 182.927L4.86011 182.926Z" fill="black"/>
<path d="M61.5614 168.49C61.5614 165.832 63.7373 163.678 66.4215 163.678H89.102C91.7862 163.678 93.9621 165.832 93.9621 168.49C93.9621 171.148 91.7862 173.302 89.102 173.302H66.4215C63.7373 173.302 61.5614 171.148 61.5614 168.49Z" fill="black"/>
<path d="M40.5009 144.429C37.8167 144.429 35.6408 146.584 35.6408 149.241C35.6408 151.899 37.8167 154.053 40.5009 154.053H76.1417C78.8259 154.053 81.0018 151.899 81.0018 149.241C81.0018 146.584 78.8259 144.429 76.1417 144.429H40.5009Z" fill="black"/>
<path d="M183 137C205.04 137 223 119.04 223 97C223 74.96 205.04 57 183 57C160.96 57 143 74.96 143 97C143 119.04 160.96 137 183 137ZM164.16 94.16L184.16 74.16C185.72 72.6 188.28 72.6 189.84 74.16C191.4 75.72 191.4 78.28 189.84 79.84L176.64 93H199C200.6 93 202.08 93.96 202.68 95.48C203.32 96.96 202.96 98.68 201.84 99.84L181.84 119.84C181.04 120.6 180.04 121 179 121C177.96 121 176.96 120.6 176.16 119.84C174.6 118.28 174.6 115.72 176.16 114.16L189.36 101H167C165.4 101 163.92 100.04 163.32 98.52C162.68 97.04 163.04 95.32 164.16 94.16Z" fill="black"/>
</svg>
